ply
format ascii 1.0
comment : MagicaVoxel @ Ephtracy
element vertex 64
property float x
property float y
property float z
property uchar red
property uchar green
property uchar blue
end_header
-2 -2 0 1 1 1
-1 -2 0 1 1 1
0 -2 0 33 33 33
1 -2 0 33 33 33
-2 -1 0 1 1 1
-1 -1 0 1 1 1
0 -1 0 33 33 33
1 -1 0 33 33 33
-2 0 0 65 65 65
-1 0 0 65 65 65
0 0 0 97 97 97
1 0 0 97 97 97
-2 1 0 65 65 65
-1 1 0 65 65 65
0 1 0 97 97 97
1 1 0 97 97 97
-2 -2 1 1 1 1
-1 -2 1 1 1 1
0 -2 1 33 33 33
1 -2 1 33 33 33
-2 -1 1 1 1 1
-1 -1 1 1 1 1
0 -1 1 33 33 33
1 -1 1 33 33 33
-2 0 1 65 65 65
-1 0 1 65 65 65
0 0 1 97 97 97
1 0 1 97 97 97
-2 1 1 65 65 65
-1 1 1 65 65 65
0 1 1 97 97 97
1 1 1 97 97 97
-2 -2 2 129 129 129
-1 -2 2 129 129 129
0 -2 2 169 169 169
1 -2 2 169 169 169
-2 -1 2 129 129 129
-1 -1 2 129 129 129
0 -1 2 169 169 169
1 -1 2 169 169 169
-2 0 2 209 209 209
-1 0 2 209 209 209
0 0 2 249 249 249
1 0 2 249 249 249
-2 1 2 209 209 209
-1 1 2 209 209 209
0 1 2 249 249 249
1 1 2 249 249 249
-2 -2 3 129 129 129
-1 -2 3 129 129 129
0 -2 3 169 169 169
1 -2 3 169 169 169
-2 -1 3 129 129 129
-1 -1 3 129 129 129
0 -1 3 169 169 169
1 -1 3 169 169 169
-2 0 3 209 209 209
-1 0 3 209 209 209
0 0 3 249 249 249
1 0 3 249 249 249
-2 1 3 209 209 209
-1 1 3 209 209 209
0 1 3 249 249 249
1 1 3 249 249 249
